<svg width="24" height="24" viewBox="0 0 24 24" fill="none" xmlns="http://www.w3.org/2000/svg">
<path d="M22.4688 2.6711C22.4334 2.68689 18.8838 4.16053 11.9998 4.16053C5.11567 4.16053 1.60711 2.70268 1.53365 2.6711L1.40088 2.613C0.740188 2.32389 0 2.80795 0 3.52913V20.5988C0 21.2853 0.675886 21.7677 1.3251 21.5445L1.4546 21.5C4.86797 20.4714 8.42455 19.9551 12 19.9683C15.5747 19.9508 19.131 20.463 22.5454 21.4867L22.6673 21.5297C23.3179 21.7593 24 21.2766 24 20.5867V3.53197C24 2.81553 23.2687 2.33152 22.6093 2.61147L22.4688 2.6711ZM21.8204 19.0813C15.3812 17.4573 8.6185 17.4573 2.17928 19.0813V5.10531C3.94171 5.59746 7.21896 6.26579 11.9999 6.26579C16.7808 6.26579 20.058 5.59742 21.8204 5.10531V19.0813Z" fill="#773844"/>
<path d="M13.0597 13.7736L10.5045 10.4367L6.62792 15.6839H17.3723L14.5364 12.2603L13.0597 13.7736Z" fill="#773844"/>
<path d="M15.2741 9.82897C15.2741 10.6645 14.5727 11.3421 13.7077 11.3421C12.8426 11.3421 12.1412 10.6645 12.1412 9.82897C12.1412 8.99321 12.8426 8.31586 13.7077 8.31586C14.5727 8.31586 15.2741 8.99321 15.2741 9.82897Z" fill="#773844"/>
</svg>
