<svg width="56" height="56" viewBox="0 0 56 56" fill="none" xmlns="http://www.w3.org/2000/svg">
<path fill-rule="evenodd" clip-rule="evenodd" d="M24.582 38.3321L24.7122 35.5391C31.7221 35.2392 35.1319 31.6544 35.1319 25.5865C35.1319 18.2548 28.9382 15.8453 24.8674 16.7009C25.3581 15.2651 27.4761 4.53554 18.5184 4.53554C9.88623 4.53554 11.7088 13.19 12.0293 14.8619C5.56012 14.8619 4.35341 20.4823 4.35341 23.1524C4.35341 26.6978 7.48784 30.4497 14.1122 30.4497V33.4886C-1.86538 33.4886 -2.51129 15.6536 8.22388 12.1672C7.25251 5.519 11.8941 1 18.4934 1C24.5019 1 29.3287 5.39115 28.6477 13.19L37.1598 1L48.4207 15.5208L44.6253 17.0648L51.45 24.844L45.8871 26.8896L55 37.7076L24.582 38.3321ZM10.0615 21.0183L10.9778 19.0858L17.1165 22.6115L17.3818 13.5834L20.7065 12.9785L21.6779 26.865L29.2987 21.4855L30.5204 24.0228L22.0084 32.3822L22.8445 45L16.4755 44.7L16.9763 28.3304L10.0615 21.0183ZM42.297 40.4318L42.7377 44.7345H33.9052L34.3508 39.9991L42.297 40.4318Z" fill="white"/>
</svg>
